HIERARCHY
ROOT Hips
{
	OFFSET -3.958830 18.904000 13.208200
	CHANNELS 6 Xposition Yposition Zposition Zrotation Yrotation Xrotation 
	JOINT LHipJoint
	{
		OFFSET 0.000000 0.000000 0.000000
		CHANNELS 3 Zrotation Yrotation Xrotation
		JOINT LeftUpLeg
		{
			OFFSET 1.800000 -1.400000 0.085000
			CHANNELS 3 Zrotation Yrotation Xrotation
			JOINT LeftLeg
			{
				OFFSET 2.215000 -6.000000 0.000000
				CHANNELS 3 Zrotation Yrotation Xrotation
				JOINT LeftFoot
				{
					OFFSET 2.500000 -6.900000 0.000000
					CHANNELS 3 Zrotation Yrotation Xrotation
					JOINT LeftToeBase
					{
						OFFSET 0.200000 -0.500000 1.950000
						CHANNELS 3 Zrotation Yrotation Xrotation
						End Site
						{
							OFFSET 0.000000 0.000000 0.000000
						}
					}
				}
			}
		}
	}
	JOINT RHipJoint
	{
		OFFSET 0.000000 0.000000 0.000000
		CHANNELS 3 Zrotation Yrotation Xrotation
		JOINT RightUpLeg
		{
			OFFSET -1.800000 -1.400000 0.085000
			CHANNELS 3 Zrotation Yrotation Xrotation
			JOINT RightLeg
			{
				OFFSET -2.215000 -6.000000 0.000000
				CHANNELS 3 Zrotation Yrotation Xrotation
				JOINT RightFoot
				{
					OFFSET -2.500000 -6.900000 0.000000
					CHANNELS 3 Zrotation Yrotation Xrotation
					JOINT RightToeBase
					{
						OFFSET -0.200000 -0.500000 1.950000
						CHANNELS 3 Zrotation Yrotation Xrotation
						End Site
						{
							OFFSET 0.000000 0.000000 0.000000
						}
					}
				}
			}
		}
	}
	JOINT LowerBack
	{
		OFFSET 0.000000 0.000000 0.000000
		CHANNELS 3 Zrotation Yrotation Xrotation
		JOINT Spine
		{
			OFFSET -0.087000 1.940000 -0.288900
			CHANNELS 3 Zrotation Yrotation Xrotation
			JOINT Spine1
			{
				OFFSET 0.000000 1.950000 0.060000
				CHANNELS 3 Zrotation Yrotation Xrotation
				JOINT Neck
				{
					OFFSET 0.000000 0.000000 0.000000
					CHANNELS 3 Zrotation Yrotation Xrotation
					JOINT Neck1
					{
						OFFSET 0.000000 1.600000 0.340000
						CHANNELS 3 Zrotation Yrotation Xrotation
						JOINT Head
						{
							OFFSET 0.000000 1.667000 -0.240000
							CHANNELS 3 Zrotation Yrotation Xrotation
							End Site
							{
								OFFSET 0.000000 0.000000 0.000000
							}
						}
					}
				}
				JOINT LeftShoulder
				{
					OFFSET 0.000000 0.000000 0.000000
					CHANNELS 3 Zrotation Yrotation Xrotation
					JOINT LeftArm
					{
						OFFSET 2.700000 1.550000 -0.730000
						CHANNELS 3 Zrotation Yrotation Xrotation
						JOINT LeftForeArm
						{
							OFFSET 5.450000 0.000000 0.000000
							CHANNELS 3 Zrotation Yrotation Xrotation
							JOINT LeftHand
							{
								OFFSET 3.450000 0.000000 0.000000
								CHANNELS 3 Zrotation Yrotation Xrotation
								JOINT LeftHandIndex1
								{
									OFFSET 0.750000 0.000000 0.000000
									CHANNELS 3 Zrotation Yrotation Xrotation
									End Site
									{
										OFFSET 0.000000 0.000000 0.000000
									}
								}
							}
						}
					}
				}
				JOINT RightShoulder
				{
					OFFSET 0.000000 0.000000 0.000000
					CHANNELS 3 Zrotation Yrotation Xrotation
					JOINT RightArm
					{
						OFFSET -2.700000 1.550000 -0.730000
						CHANNELS 3 Zrotation Yrotation Xrotation
						JOINT RightForeArm
						{
							OFFSET -5.450000 0.000000 0.000000
							CHANNELS 3 Zrotation Yrotation Xrotation
							JOINT RightHand
							{
								OFFSET -3.450000 0.000000 0.000000
								CHANNELS 3 Zrotation Yrotation Xrotation
								JOINT RightHandIndex1
								{
									OFFSET -0.750000 0.000000 0.000000
									CHANNELS 3 Zrotation Yrotation Xrotation
									End Site
									{
										OFFSET 0.000000 0.000000 0.000000
									}
								}
							}
						}
					}
				}
			}
		}
	}
}
MOTION
Frames: 4
Frame Time: 0.016667
-0.435290 17.192630 -2.124970 2.482994 -15.195791 -4.614802 -15.730312 15.233769 3.306692 -0.305771 -0.387499 0.109722 -6.838101 6.791993 14.754313 -0.658312 5.742162 2.888641 0.783250 0.310760 0.676010 17.863791 -9.005596 2.252151 1.186505 -0.394989 -27.470503 -1.036281 -3.216950 15.717955 0.002371 -1.952342 3.927076 0.409530 0.420050 0.251840 -1.937496 -8.659793 -6.898907 -2.175453 -18.129570 18.138883 -11.348384 -17.506680 11.955664 -0.494608 -8.420449 -10.519471 -24.277599 22.762264 20.227762 -4.826620 18.189620 -12.005100 -7.265440 0.227011 2.957410 -58.308775 -30.458958 23.752767 -159.797348 -57.469436 133.750198 -3.822599 3.251242 0.692850 0.400780 -0.166360 0.303790 9.367779 -4.511389 5.329281 40.434951 -22.899289 -5.441943 99.608718 44.740088 39.370700 0.999149 -2.386411 -0.434740 0.416490 -0.122280 -0.494830 
-0.449850 17.190730 -2.082750 1.920505 -17.701155 -2.855620 -15.737662 15.086996 3.254843 -0.148711 -0.312473 -0.195922 -7.561524 6.692784 12.905874 -0.663677 5.655069 2.941966 0.786970 0.315840 0.701850 17.900797 -8.829055 2.347994 1.376190 0.285171 -26.818743 0.797854 -3.106213 12.845851 0.024620 -1.862771 3.968070 0.424420 0.436800 0.271920 -2.003126 -8.573882 -6.841028 -0.031910 -18.330059 15.677557 -11.325554 -17.251882 12.532369 -0.439139 -8.177538 -10.529797 -23.079194 23.401694 20.299580 -6.009480 20.239290 -10.906910 -6.762645 -0.104222 3.018286 -57.008099 -30.902221 24.655284 -161.678164 -56.368940 136.545431 -3.852200 3.302346 0.658130 0.452530 -0.178840 0.319630 8.448507 -4.098502 5.526974 38.655331 -22.191887 -4.811725 100.142359 44.118277 38.958196 0.979861 -2.457404 -0.444420 0.384470 -0.155330 -0.505740 
-0.447020 17.189100 -2.044990 0.893487 -19.640043 -1.492553 -15.722554 14.974400 3.187208 0.371767 -0.358323 -0.524463 -7.831829 6.577922 11.829106 -0.695965 5.587112 2.947121 0.819860 0.354670 0.746930 17.945877 -8.712312 2.440711 2.092969 0.863105 -26.446381 1.966400 -3.076754 11.394613 0.015095 -1.840453 3.958532 0.451360 0.414560 0.302270 -2.124131 -8.465471 -6.804119 2.030133 -18.560634 14.574151 -10.589449 -17.220925 13.305348 -0.755311 -8.036942 -10.715627 -22.334407 23.962580 20.056735 -6.861630 21.534910 -11.571350 -6.250153 -1.181645 3.322622 -55.791543 -32.174909 25.978905 -165.713546 -54.782701 142.736046 -3.865989 3.345345 0.644010 0.471910 -0.165880 0.308030 8.368748 -3.026276 5.691133 36.674686 -21.008826 -4.643935 101.210456 45.270724 40.322917 0.986175 -2.492901 -0.426140 0.351300 -0.169070 -0.522960 
-0.455200 17.205340 -2.010740 0.498073 -21.323679 -0.953535 -15.747558 14.950121 3.174435 0.588843 -0.288757 -0.369766 -7.819000 6.407649 10.663906 -0.708685 5.504024 2.948384 0.871090 0.412620 0.800540 17.943076 -8.611638 2.468873 2.509023 1.106543 -25.681186 2.445610 -2.973113 10.228034 -0.022277 -1.798315 3.946654 0.475780 0.356700 0.321860 -2.097217 -8.549358 -6.807752 2.231457 -18.971566 14.094257 -9.743731 -17.588979 14.131093 -1.053005 -7.917689 -11.176300 -22.262782 25.204437 20.305326 -7.243540 22.747840 -13.032540 -5.484997 -2.463289 3.781179 -53.704571 -31.966825 25.306577 -167.249301 -53.368936 144.283028 -3.851558 3.373248 0.667890 0.442410 -0.117190 0.300600 8.153106 -1.669530 6.030809 35.094963 -19.817588 -4.398711 104.479639 46.626538 43.711513 1.017937 -2.510980 -0.398450 0.323640 -0.194130 -0.537880 
